<svg xmlns="http://www.w3.org/2000/svg" shape-rendering="geometricPrecision" text-rendering="geometricPrecision" image-rendering="optimizeQuality" fill-rule="evenodd" clip-rule="evenodd" viewBox="0 0 417 512.24">
  <style>
    path { fill: #000000; }
    @media (prefers-color-scheme: dark) {
      path { fill: #ffffff; }
    }
  </style>
  <path fill-rule="nonzero" d="M49.67 512.24c-17.94 0-30.7-4.31-38.29-12.94C3.79 490.68 0 481.37 0 471.37c0-6.21 1.29-12.08 3.88-17.6 2.59-5.51 6.12-9.48 10.61-11.9 3.45-1.72 6.55-2.58 9.31-2.58 3.79 0 7.24 1.2 10.35 3.62 3.1 2.41 4.65 5.69 4.65 9.83 0 1.03-.08 1.98-.26 2.84a23.7 23.7 0 01-.77 2.85c-2.07 1.73-4.06 4.31-5.95 7.76-1.9 3.45-3.19 6.9-3.88 10.35-.35.69-.52 1.55-.52 2.59v2.58c0 4.49 1.38 8.28 4.14 11.38 2.76 3.11 5.86 4.66 9.31 4.66 8.97 0 17.59-3.28 25.87-9.83 8.28-6.55 15.95-14.74 23.02-24.57s13.37-19.75 18.89-29.75c5.52-10.01 10-18.63 13.45-25.87 15.86-32.08 30.96-65.54 45.27-100.37 14.31-34.84 27.85-68.81 40.61-101.92l-80.61-1.88 12.56-23.48c2.7-5.05 71.1 1.58 77.37 2.07 4.13-11.03 8.19-21.81 12.15-32.33 3.97-10.52 7.85-20.61 11.64-30.27 7.94-20 17.08-39.15 27.42-57.43 10.35-18.28 23.2-33.19 38.55-44.75C322.41 5.82 341.12.04 363.19.04c12.77-.35 23.63 1.55 32.6 5.69 8.97 4.14 15.52 11.9 19.66 23.28 1.03 3.11 1.55 6.73 1.55 10.87 0 6.9-1.72 13.97-5.17 21.21s-8.11 12.24-13.97 15a15.93 15.93 0 01-5.69 2.07c-2.07.35-3.97.52-5.69.52-4.49 0-8.45-1.21-11.9-3.62-3.45-2.42-5.18-5.86-5.18-10.35 0-2.07.52-4.31 1.55-6.73 6.21-4.48 10.52-10.86 12.94-19.14.34-1.38.6-2.58.78-3.62.17-1.03.25-2.07.25-3.1 0-6.9-2.58-11.9-7.76-15.01-2.07-1.72-4.31-2.84-6.72-3.36-2.42-.52-4.83-.78-7.25-.78-11.38 0-21.55 5.35-30.52 16.04-11.04 12.76-21.13 28.46-30.27 47.08A588.492 588.492 0 00278.09 133c-7.07 19.32-13.37 36.39-18.89 51.22 14.14 0 27.85-.25 41.13-.77 13.28-.52 24.75-1.38 34.41-2.59 9.66-1.21 15.52-2.5 17.59-3.88-2.41 6.55-6.47 11.73-12.16 15.52-5.69 3.8-14.23 6.56-25.61 8.28-7.93 1.38-17.42 2.33-28.45 2.85-11.04.51-22.42.94-34.15 1.29l-15 43.46c-4.83 13.79-10.61 29.83-17.34 48.11-6.72 18.28-14.4 37.34-23.02 57.17a618.304 618.304 0 01-28.71 57.69c-10.52 18.63-21.91 35.61-34.15 50.96-12.24 15.35-25.35 27.51-39.32 36.48-13.97 8.96-28.89 13.45-44.75 13.45z"/></svg>